<?xml version="1.0" standalone="yes"?>
<svg width="1056" height="544">
<path style="fill:#ffffff; stroke:none;" d="M0 0L0 544L1056 544L1056 0L0 0z"/>
<path style="fill:#000000; stroke:none;" d="M2 95L2 444L1037 444L1037 95L2 95z"/>
<path style="fill:#602521; stroke:none;" d="M258 189L258 190C275.73 186.708 296.13 188.59 314 190L298 188L258 189z"/>
<path style="fill:#9a3734; stroke:none;" d="M101 235C113.211 229.294 126.833 231 140 231C165.77 231 193.4 233.873 218.981 230.891C224.099 230.295 226.648 224.418 230.005 221C239.067 211.772 248.102 200.155 258.439 192.424C262.61 189.305 268.082 190 273 190C284.792 190 308.999 185.377 317.106 196.26C321.109 201.633 319 212.614 319 219C320.328 215.834 320 212.419 320 209C320 204.261 321.167 197.393 318.142 193.344C312.082 185.234 290.88 189 282 189C274.989 189 263.541 186.833 257.439 190.819C246.917 197.691 237.883 210.103 229 219C225.747 222.258 222.266 227.472 217.91 229.258C208.48 233.125 192.158 230 182 230L122 230C115.155 230 105.089 228.243 101 235z"/>
<path style="fill:#ce2c24; stroke:none;" d="M182 269C176.594 274.679 167.236 273 160 273L120 273C114.637 273 107.089 271.663 102.055 273.742C94.9952 276.658 93.8887 302.531 99.5725 307.062C102.887 309.703 108.085 308.794 112 309.17C120.796 310.014 129.126 311 138 311C130.41 317.601 118.04 312.052 109 314.318C95.1929 317.779 98 334.436 98 345L101 345C102.673 355.926 120.751 352 129 352C152.721 352 165.516 349.032 182.104 330.996C188.014 324.571 195.075 319.574 193 310C203.089 306.802 210.941 309.873 221 309.996C241.66 310.25 262.339 310 283 310C292.489 310 305.992 311.803 314.775 307.436C322.207 303.741 321.554 277.272 313.79 274.029C307.353 271.34 297.855 273 291 273L240 273C243.513 266.987 252.9 269 259 269L296 269C300.907 269 308.041 270.296 312.571 268.142C319.956 264.631 323.371 239.168 316.682 234.09C310.008 229.022 294.06 230.022 286 230L286 228C293.921 228 306.863 230.461 313.906 226.427C321.238 222.228 322.055 199.332 315.656 194.058C310.835 190.085 304.913 190.002 299 190C287.348 189.996 273.44 187.918 262.039 190.344C256.934 191.431 253.421 196.483 249.961 200.015C243.046 207.071 235.858 213.87 229.019 221C226.215 223.924 224.003 229.359 219.942 230.566C212.089 232.902 201.172 231 193 231L134 231C124.366 231 113.083 229.375 104.001 233.199C93.7851 237.501 92.7546 263.959 104.019 268.181C111.108 270.839 121.497 269 129 269L182 269z"/>
<path style="fill:#341d1a; stroke:none;" d="M315 190L318 192L315 190z"/>
<path style="fill:#63312c; stroke:none;" d="M219 229C232.36 221.35 247.688 203.298 257 191L244 202L219 229z"/>
<path style="fill:#73372f; stroke:none;" d="M319 194C320.974 204.631 320.379 214.842 317 225C323.283 221.146 323.263 199.627 319 194z"/>
<path style="fill:#13397f; stroke:none;" d="M942 321C942.757 311.747 950.576 297.544 945.012 288.475C940.526 281.163 919.421 284 912 284C911.246 289.882 903.407 305.153 896.424 305.555C892.343 305.789 888.223 298.392 886.63 295.424C880.185 283.418 880.608 266.626 883.785 253.83C885.198 248.138 889.911 237.301 897.015 236.812C908.004 236.057 905.08 250.348 911.317 253.397C921.644 258.445 934.918 250.642 945 250C945 235.94 943.918 221.63 934.58 210.174C917.941 189.759 882.857 189.489 864.299 206.997C848.128 222.252 845 246.147 845 267C845 297.245 850.658 346.919 891 347C896.2 347.01 901.862 347.614 907 346.74C915.318 345.325 927.582 341.248 933.27 334.811C937.009 330.58 937.2 323.802 942 321z"/>
<path style="fill:#080e19; stroke:none;" d="M756 196L756 197L843 197L816 196L756 196z"/>
<path style="fill:#202f4a; stroke:none;" d="M853 222L854 222C861.905 210.681 868.907 200.52 883 197C870.112 192.38 855.345 211.305 853 222z"/>
<path style="fill:#1a3350; stroke:none;" d="M912 196L912 197C936.767 204.848 945 225.485 945 250C954.035 228.469 935.308 196.484 912 196z"/>
<path style="fill:#e63126; stroke:none;" d="M238 229C233.344 231.199 232.59 237.769 228.733 239.242C220.886 242.236 210.097 239.1 202 239.004C180.673 238.75 159.328 239 138 239C130.639 239 118.043 236.561 111.299 239.6C102.129 243.73 104.279 257.457 114 258.856C120.686 259.818 127.355 258.177 134 258.015C149.314 257.639 164.681 258 180 258L179 260C181.665 260 184.336 260.051 187 259.985C189.023 259.936 190.989 259.607 192.999 259.468C208.556 258.392 184.708 276.282 184 281L131 281C125.384 281 115.195 279.053 110.26 282.028C104.804 285.317 105.001 292.52 105 298L112 297C114.617 301.037 119.606 300 124 300C134.061 300 144.016 299.738 154 301L154 302L149 302L149 303L154 305L157 304C152.78 313.358 142.186 321.197 132 321.91C125.419 322.372 115.658 319.858 110.185 324.279C104.475 328.891 103.342 339.38 112.054 341.683C125.503 345.238 142.287 342.055 155 339L155 335L160 335L169 324L181 315L180 312C185.941 310.092 188.486 302.432 194.129 300.769C199.813 299.094 208.962 301 215 301L265 301C274.728 301 284.328 300.252 294 300.015C297.479 299.929 303.369 301.156 306.346 298.972C310.384 296.01 307.896 286.468 308 282C286.727 278.051 262.625 281 241 281C231.764 281 220.875 284.589 218 274C227.54 271.136 231.627 259.749 242.039 258.147C256.928 255.857 273.021 259 288 259C292.934 259 300.204 260.333 304.816 258.397C310.412 256.047 315.259 243.108 307.775 240.228C297.62 236.321 284.524 239.999 274 240L275 238C262.312 237.999 262.304 234.008 270.157 225.425C273.477 221.796 276.769 217.699 282.039 217.147C289.449 216.372 299.137 220.864 305.941 216.258C313.915 210.86 309.83 198.473 300.91 197.143C292.495 195.889 274.707 194.485 267.001 198.164C259.837 201.585 253.704 209.197 248.421 214.911C245.062 218.544 236.218 223.634 238 229z"/>
<path style="fill:#171d23; stroke:none;" d="M349 197L349 198C356.196 198 380.12 194.214 383.397 202.109C386.469 209.51 379.736 224.526 386 230L383.972 199.318L374 197L349 197z"/>
<path style="fill:#1b365b; stroke:none;" d="M392 222C399.287 216.622 402.556 207.358 410.039 202.144C415.785 198.141 438.295 195.563 443.397 201.434C445.785 204.182 445.219 209.617 444.942 213C444.127 222.962 433.098 228.08 432 238C426.219 239.998 420.481 249.289 419 255L448 221L448 313C443.105 310.169 440.62 302.253 439 297L438 297L447 323L448 323C450.409 312.883 449 301.363 449 291L449 233C449 225.728 445.546 205.72 451.434 200.603C456.072 196.573 469.156 199 475 199C495.364 199 515.674 198.944 536 199L536 197L448 197C436.908 197 419.549 193.693 409.185 197.703C403.297 199.981 393.495 216.105 392 222z"/>
<path style="fill:#1a2434; stroke:none;" d="M575 344C568.477 345.553 546.355 348.21 542.028 341.683C537.948 335.53 541 319.281 541 312L541 232C541 225.088 537.559 204.648 542.603 199.603C547.581 194.625 570.535 197.461 577 199C572.6 193.965 554.555 196.956 548 197.001C545.047 197.021 541.345 196.689 540.318 200.148C537.608 209.275 540 222.476 540 232L540 302C540 313.992 536.741 331.453 540.434 342.852C541.54 346.266 545.016 345.979 548.001 345.999C554.258 346.043 570.775 348.835 575 344z"/>
<path style="fill:#22374d; stroke:none;" d="M601 198L601 199C608.149 199 627.364 195.642 632.397 201.434C634.735 204.125 634 208.713 634 212L634 239L634 344L635 344L635 197L601 198z"/>
<path style="fill:#0a1017; stroke:none;" d="M635 197L635 344L636 344L636 241C636 228.532 639.807 208.456 635 197z"/>
<path style="fill:#0c131b; stroke:none;" d="M639 343L640 343L640 239L640 212C640 208.611 639.046 203.287 641.028 200.318C643.321 196.882 649.48 198 653 198C664.532 198 677.142 195.783 687 202C685.43 192.96 658.566 197 651 197C647.424 197 640.645 195.678 639.318 200.148C635.537 212.884 639 231.686 639 245L639 343z"/>
<path style="fill:#0f2b4d; stroke:none;" d="M702 217L703 217C703.837 197.563 714.95 199 731 199C736.285 199 746.77 197.05 749.397 203.189C753.885 213.678 750 233.575 750 245L750 344L751 344L751 197L718 197C714.651 197 708.411 195.833 705.603 198.028C701.178 201.486 702 212.105 702 217z"/>
<path style="fill:#0b1427; stroke:none;" d="M755 197L755 344L756 344L756 241C756 228.532 759.807 208.456 755 197z"/>
<path style="fill:#182d53; stroke:none;" d="M756 197L756 203L757 203C761.836 197.194 773.779 198.036 781 198.001C801.695 197.901 822.383 198.829 843 199C843 210.581 845.303 224.451 840 235C844.517 233.679 843.992 229.094 844 225L844 197L756 197z"/>
<path style="fill:#293959; stroke:none;" d="M348 198L348 344L349 344L349 199L381 199L348 198z"/>
<path style="fill:#143d87; stroke:none;" d="M448 323L447 323C443.312 305.331 432.14 289.294 424.875 273C422.845 268.447 418.447 264.21 417.968 259.09C417.35 252.475 426.609 241.081 432 238C433.779 229.059 443.568 224.066 444.856 215C445.363 211.427 446.203 203.49 443.397 200.742C438.383 195.834 415.594 198.086 410.039 201.499C397.694 209.085 392.975 225.631 383 235L383 199L349 199L349 344L383 344L383 302L392 298C392.34 308.743 401.812 323.762 406.969 333.169C408.877 336.65 409.491 340.934 413.305 343.012C423.849 348.756 442.597 344.539 454 344.039C481.884 342.818 510.086 344 538 344L538 308L483 308L484.603 287.603L497 286L531 286C531 277.169 533.977 261.099 527.968 253.823C520.818 245.165 493.484 250 483 250L483 234L520 234C523.877 233.999 531.078 234.859 533.836 231.411C539.227 224.671 536 207.169 536 199C514.989 198.826 494.047 199 473 199C467.796 199 454.623 196.639 450.742 200.603C445.56 205.897 449 225.881 449 233C449 261.876 453.27 294.615 448 323z"/>
<path style="fill:#11408c; stroke:none;" d="M575 294L576 294C578.969 306.109 586.627 319.55 592.211 330.804C594.047 334.505 594.812 339.99 598.344 342.486C602.436 345.378 611.124 344.976 616 344.999C619.926 345.018 630.263 346.817 632.972 343.397C637.457 337.734 634 318.161 634 311L634 231C634 223.872 637.07 207.388 632.972 201.434C628.96 195.603 607.527 199 601 199L600 256C594.374 241.008 589.999 226.691 582.475 212.424C580.301 208.304 580.533 202.406 576.517 199.514C572.415 196.56 564.798 198 560 198C555.913 198 544.833 196.061 542.028 199.603C540.228 201.876 541 206.307 541 209L541 234L541 307C541 317.111 538.447 331.164 541.318 340.852C543.288 347.499 560.686 345.011 566 345C568.42 344.995 572.255 345.564 573.972 343.397C576.301 340.457 575 333.531 575 330L575 294z"/>
<path style="fill:#0e428f; stroke:none;" d="M641 198L641 343L673 344L673 308L674 308L677 344C689.533 344.989 703.329 347.223 715 342L715 330L716 330C716 333.504 714.523 341.382 717.603 343.821C722.277 347.523 736.228 345.039 742 344.999C744.516 344.982 748.072 345.374 749.397 342.682C753.827 333.677 750 314.057 750 304L750 237C750 226.471 751.62 214.469 749.852 204.094C749.228 200.435 746.398 199.312 742.999 199.055C735.348 198.476 713.389 195.585 707.419 200.603C703.712 203.72 704.029 209.695 702.791 213.961C699.798 224.273 697 234.09 697 245C686.016 235.105 694.68 211.167 684.852 200.148C682.07 197.03 676.749 198 673 198L641 198z"/>
<path style="fill:#0e3c87; stroke:none;" d="M845 343L845 318L843.397 309.028L833 308L805 308L792.028 305.682L791 286L840 286L840 249L805 249L791.603 247.397L790 235L827 235C831.189 235 838.241 236.339 841.258 232.682C846.523 226.298 843 207.024 843 199C823.03 198.588 803.041 197.999 783 198C777.184 198 764.187 196.779 759.318 200.028C753.734 203.754 757 224.799 757 231L757 314C757 319.698 754.036 338.164 758.742 341.972C763.051 345.458 776.611 343 782 343L845 343z"/>
<path style="fill:#1e252e; stroke:none;" d="M844 198L843 235L844 235C846.565 226.324 847.514 206.374 844 198z"/>
<path style="fill:#3b211d; stroke:none;" d="M321 199L321 219L322 219L321 199z"/>
<path style="fill:#252c38; stroke:none;" d="M347 199L347 343L348 343L348 242C348 229.794 351.707 210.218 347 199z"/>
<path style="fill:#1c3f69; stroke:none;" d="M536 199C536 207.002 539.261 225.165 533.262 231.411C530.058 234.747 523.178 233.998 519 234L483 234L483 250C494.168 250 521.683 244.917 528.57 255.44C533.577 263.09 531 277.269 531 286L484 286L484 287L533 287L533 260C533 257.207 533.908 252.168 531.397 250.179C525.289 245.341 504.693 249 497 249C493.48 249 487.321 250.118 485.028 246.682C483.045 243.711 484 238.407 484 235C496.699 235 509.276 236 522 236C526.224 236 533.323 237.33 536.397 233.682C541.663 227.431 538 206.989 538 199L536 199z"/>
<path style="fill:#1f232a; stroke:none;" d="M599 199L599 244L596 239L595 239L599 250L600 250C600 235.689 604.508 212.127 599 199z"/>
<path style="fill:#213450; stroke:none;" d="M600 199L600 250L599 250L599 247L598 247L599 256L600 256L601 217L600 199z"/>
<path style="fill:#092c61; stroke:none;" d="M640 199L640 344L644 344L644 343L641 343L641 242C641 229.794 644.707 210.218 640 199z"/>
<path style="fill:#084190; stroke:none;" d="M865 218C878.954 209.909 887.432 204 904 204L904 205L901 205L901 206C905.826 206.04 914.2 205.586 916 211C926.406 217.614 932.275 228.086 935 240C931.397 240.287 923.356 244.482 920.43 242.864C917.581 241.29 918.078 236.642 916.912 234.015C914.421 228.399 907.976 223.849 902 223L902 222L904 220L891.015 220.572L881 225C881.536 228.648 880.659 230.871 877 232L875 240L867 240C867.001 247.783 868.917 255.267 868.996 263C869.119 274.978 865.947 290.316 873 301L871 282L872 282C872.849 292.668 877.834 312.894 888.519 318.157C898.532 323.09 918.477 312.272 917 301L926 301L926 300L921 294L916 302C907.35 296.868 895.315 320.213 891 306C884.758 304.242 882.063 298.415 879.725 292.715C874.867 280.874 876.04 256.588 880.989 245.001C883.584 238.926 890.607 237.586 892 231C898.683 231.056 905.905 233.113 910.436 238.478C913.567 242.186 912.217 248.85 918.094 249.852C923.367 250.75 936.26 250.954 939.972 246.262C942.161 243.495 940.489 238.948 939.705 236C937.598 228.077 935.342 218.238 930.736 211.326C927.006 205.728 919.951 204.455 914 202.657C897.403 197.642 868.991 194.974 865 218z"/>
<path style="fill:#203047; stroke:none;" d="M383 200L383 235L389 225L388 225L384 230L383 200z"/>
<path style="fill:#1d4070; stroke:none;" d="M756 203L756 344L847 344L847 309L845 309L845 343L781 343C775.796 343 762.623 345.361 758.742 341.397C753.24 335.776 757 313.614 757 306L757 234C757 224.94 759.507 211.357 756 203z"/>
<path style="fill:#094ca2; stroke:none;" d="M529 204L528 208L527 208L527 205C509.926 205 493.101 207 476 207C471.615 207 461.103 204.851 460 210L456 208L456 224L455 224L455 214C449.271 219.611 452 233.407 452 241C452 266.023 451 291.047 451 316L452 316L452 312L453 312C454.708 319.174 450.318 334.246 460 335C460.784 341.005 470.46 340 475 340C490.251 340 509.827 343.298 524 337L524 336L514 336L514 335C517.751 334.92 523.328 334.817 526.258 332.066C529.059 329.434 529.501 317.482 525.682 315.603C522.101 313.841 515.904 315 512 315L480 315C479.245 308.771 475.339 289.57 480.603 284.782C482.923 282.672 487.192 283.921 490 283.985C498.658 284.183 507.34 284 516 284L516 278L488 278L488 277L522 275L521 257L480 257L480 256L516 256C509.012 248.864 484.453 259.019 481.434 248.941C473.215 221.51 514.646 237.766 528.87 231.597C537.755 227.744 536.399 208.431 529 204z"/>
<path style="fill:#0548a1; stroke:none;" d="M863 239L862 239L862 236L856 242L855 242L855 239L854 239C852.496 243.377 848.998 246.478 847.765 251.004C843.312 267.338 845.796 293.963 853.174 309.071C855.308 313.44 859.672 315.865 862.24 320.005C864.723 324.008 865.976 329.112 869.014 332.721C877.537 342.847 896.503 347.694 909 344L907 341C912.881 338.966 920.959 337.16 925.957 333.451C937.912 324.578 942 305.631 942 292L924 289L926 292L919 291L926 300L926 301L917 301C917.158 311.529 897.407 324.322 887.764 317.197C882.932 313.626 877.102 301.631 872 301L867 240L875 240L877 232C881.25 231.248 882.528 229.009 881 225L891.015 220.89L904 220L902 222L902 223C907.753 224.429 913.631 228.696 916.431 234.015C917.793 236.602 917.419 242.055 920.43 243.353C923.841 244.823 931.177 240.497 935 240C933.512 228.623 926.743 215.725 916 211C914.832 205.209 905.867 206.013 901 206L901 205L904 205C881.148 195.411 865.427 220.222 863 239z"/>
<path style="fill:#094fa7; stroke:none;" d="M376 206L359 207C359 236.95 357.856 266.974 358.001 297C358.047 306.508 362.847 323.617 358 332L358 333L373 335C373 319.434 366.346 285.451 386 280C386.712 275.412 388.776 273.624 393 272L420 335L428 335L428 336L424 336L424 337C429.949 340.671 432.767 338.547 439 337L439 336L430 336L430 335L434 335L432 332L432 331L441 335L431 311L425.222 302L411 269L409 270C408.019 266.539 406.623 264.536 403 264C403 258.55 404.747 245.687 410 247C412.477 231.458 432.205 221.922 437 207C419.364 202.801 412.545 210.09 405 225L408 226L406 231L405 231L405 228L404 228L403 232C395.397 231.272 391.95 240.665 391 247L390 247L389 245L377 262L381 255L378 254C382.221 239.718 380.803 220.457 378 206L376 206z"/>
<path style="fill:#084aa4; stroke:none;" d="M550 335L559 332L560 328L564 329L564 272L565 272L565 335L566 335C566.204 328.181 571.989 325.167 572.867 318.91C575.51 300.068 570.342 280.394 568 262L572 262L570 256C580.879 267.99 587.027 289.993 593 305L597 304C598.559 316.062 603.027 334.989 617 335L617 336L614 338L631 335L631 241C631 230.713 634.164 213.765 626 206L626 288L625 288L625 229L623.397 208.603L609 207L609 266C609 273.638 611.218 283.319 604 288L602 284L601 287L600 287L592.201 263.054L585 249L582 250C581.999 237.408 576.109 227.952 570.474 217C569.149 214.425 569.381 210.994 567.486 208.769C564.605 205.383 552.062 203.767 549.742 208.318C545.69 216.267 550 234.01 550 243L550 335z"/>
<path style="fill:#182029; stroke:none;" d="M400 207L397 214L398 214L402 207L400 207z"/>
<path style="fill:#094fa7; stroke:none;" d="M653 208L652 256L648 256C648 276.401 646.237 297.695 648.17 318C648.782 324.431 648.786 340.217 659.772 333.682C665.531 330.256 663 316.716 663 311C663 287.913 661.18 265.063 663 242L664 242L664 244L665 244L666 241L669 249L670 246L671 246L687 335C693.976 334.999 700.663 335.042 704 328L705 331L706 331C713.297 314.844 714.594 291.809 716 274L715 274L710 301L709 301C709.023 292.682 709.735 278.682 715 272C713.558 261.85 715.961 241.409 726 236L725 313L724 313L724 307L723 307L724 334L727 333L740 335L740 242C740 234.652 743.566 214.404 738.972 208.603C736.318 205.252 715.584 205.427 713.6 209.318C710.454 215.485 710.869 224.3 709.487 231C705.851 248.63 698.953 267.174 699 285L698 285L698 282L689 286L683.795 256.829L675 207L653 208z"/>
<path style="fill:#084aa4; stroke:none;" d="M767 208L765 232L767 319L770 317C769.41 320.064 765.548 325.513 767.287 328.411C769.73 332.482 780.067 331 784 331C801.227 331 818.908 332.16 836 330L835 316L781 315C781 307.044 781.454 298.937 780.911 291C780.647 287.153 778.981 282.634 781.603 279.228C784.699 275.208 790.533 276 795 276L830 276L830 275L826 275L824 273L824 272C828.559 270.437 831.563 262.359 825.856 259.877C822.008 258.204 819.426 261.846 815.961 262.687C809.568 264.237 788.973 265.569 783.573 261.682C780.321 259.342 781.002 254.487 781 251L781 224L834 225L834 224L829 224L832 208L767 208z"/>
<path style="fill:#172233; stroke:none;" d="M440 229L447 222L447 313L448 313L448 221C443.621 222.256 441.625 224.819 440 229z"/>
<path style="fill:#000000; stroke:none;" d="M446 222C438.542 230.538 422.187 245.068 419.553 256.289C418.477 260.874 423.177 266.895 425.235 270.804C430.434 280.68 434.865 291.027 439.907 301.035C441.912 305.017 443.285 310.434 447 313L447 250L446 222z"/>
<path style="fill:#202f45; stroke:none;" d="M852 222L847 240L848 240L852 222z"/>
<path style="fill:#2b4e92; stroke:none;" d="M355 224L355 334L356 334L356 257L355 224z"/>
<path style="fill:#396a99; stroke:none;" d="M795 226L795 227L829 227L795 226z"/>
<path style="fill:#395e93; stroke:none;" d="M474 227L474 255L475 255L474 227z"/>
<path style="fill:#181110; stroke:none;" d="M115 228L115 229L219 229L187 228L115 228z"/>
<path style="fill:#63312d; stroke:none;" d="M286 228L286 230L309 230L309 228L286 228z"/>
<path style="fill:#512924; stroke:none;" d="M96 262L97 262C95.151 252.041 93.6036 239.109 103.171 232.779C111.762 227.095 127.12 230 137 230L219 230C211.361 226.794 199.271 229 191 229L129 229C120.286 229 107.57 226.594 100.185 232.109C92.6739 237.718 93.592 253.854 96 262z"/>
<path style="fill:#863c36; stroke:none;" d="M294 230L294 231C300.62 231 311.322 229.968 316.682 234.703C325.116 242.153 317.008 261.829 313 269C322.362 265.729 325.96 239.544 318.486 232.893C312.992 228.003 300.771 230 294 230z"/>
<path style="fill:#1a2027; stroke:none;" d="M693 232C693 237.204 692.11 242 697 245L697 240L694 241L693 232z"/>
<path style="fill:#374b5b; stroke:none;" d="M790 235L790 248L791 248L791 236L843 236L826 235L790 235z"/>
<path style="fill:#232c31; stroke:none;" d="M791 236L791 249L792 249L792 237L833 237C822.012 232.389 802.957 236 791 236z"/>
<path style="fill:#cd4940; stroke:none;" d="M113 237L113 238L219 238L187 237L113 237z"/>
<path style="fill:#478fe1; stroke:none;" d="M723 237L725 240L725 237L723 237z"/>
<path style="fill:#3e2521; stroke:none;" d="M321 238L321 259L322 259L321 238z"/>
<path style="fill:#6f3634; stroke:none;" d="M96 239L96 260L97 260L96 239z"/>
<path style="fill:#182230; stroke:none;" d="M845 240L845 250L846 250L845 240z"/>
<path style="fill:#26364a; stroke:none;" d="M813 248L813 249L839 249C833.577 244.892 819.352 246.123 813 248z"/>
<path style="fill:#1a263a; stroke:none;" d="M485 248L485 249L520 249C523.565 249 529.61 248.001 531.972 251.434C536.637 258.211 533 277.818 533 286L534 258L531.682 248.742L518 248L485 248z"/>
<path style="fill:#10213d; stroke:none;" d="M840 249L840 286L841 286C841 275.351 844.111 258.798 840 249z"/>
<path style="fill:#1d2946; stroke:none;" d="M844 251L847 307L792 307L792 308L847 309L847 344L848 344L848 312L849 312C850.521 317.673 852.613 325.07 858 328L845.17 286L844 251z"/>
<path style="fill:#0f151c; stroke:none;" d="M843 252L843 288L844 288C844 277.613 847.011 261.56 843 252z"/>
<path style="fill:#203759; stroke:none;" d="M417 256C418.74 268.65 428.813 285.446 436 296L437 296L419 256L417 256z"/>
<path style="fill:#4a2221; stroke:none;" d="M97 262L99 265L97 262z"/>
<path style="fill:#6b211a; stroke:none;" d="M101 267C104.747 272.195 115.16 270 121 270L176 270L176 269C152.852 269 123.116 273.901 101 267z"/>
<path style="fill:#002789; stroke:none;" d="M724 267L724 313L725 313C725 299.997 729.01 278.939 724 267z"/>
<path style="fill:#311d1c; stroke:none;" d="M243 270L243 271C265.888 271 291.489 267.821 314 272L317 269L296 270L243 270z"/>
<path style="fill:#903b36; stroke:none;" d="M176 269L176 272L104 272L104 273L162 273C168.143 273 178.273 274.913 182 269L176 269z"/>
<path style="fill:#612f2c; stroke:none;" d="M241 272L294 272C301.015 272 310.627 270.612 316.084 276.133C322.936 283.065 320.095 297.336 319 306L320 306C321.866 298.162 323.82 280.578 317.467 274.499C312.131 269.394 302.717 271 296 271L243 271L243 270L313 270C307.784 267.811 300.619 269 295 269L258 269C252.785 269 244.149 267.142 241 272z"/>
<path style="fill:#271816; stroke:none;" d="M104 270L104 271L176 271L153 270L104 270z"/>
<path style="fill:#8a3635; stroke:none;" d="M240 270C241.12 275.228 252.519 273 257 273L310 273L310 272L262 272L240 270z"/>
<path style="fill:#612e2c; stroke:none;" d="M104 271L104 272L176 272L153 271L104 271z"/>
<path style="fill:#3b6090; stroke:none;" d="M474 278L474 303L475 303L474 278z"/>
<path style="fill:#d14741; stroke:none;" d="M112 279L112 280L181 280L159 279L112 279z"/>
<path style="fill:#231512; stroke:none;" d="M321 279L321 304L322 304L321 279z"/>
<path style="fill:#643834; stroke:none;" d="M96 281L96 302L97 302L96 281z"/>
<path style="fill:#b73733; stroke:none;" d="M319 281C319 287.957 321.258 300.03 316.297 305.683C310.432 312.366 292.013 310 284 310C263.023 310 241.969 310.533 221 309.985C211.25 309.731 202.615 305.943 193 310L193 319C206.278 310.636 217.336 312 233 312L285 312C293.857 312 306.652 314.255 314.891 310.436C322.202 307.047 321.628 287.263 319 281z"/>
<path style="fill:#101624; stroke:none;" d="M911 281L911 282L932 282L911 281z"/>
<path style="fill:#352421; stroke:none;" d="M95 282L95 302L96 302L95 282z"/>
<path style="fill:#0d3b6d; stroke:none;" d="M871 282C871.001 291.785 873.083 308.661 884 312L871 282z"/>
<path style="fill:#243251; stroke:none;" d="M908 294L909 294L912 284L935 285C931.939 280.979 915.873 279.804 911.728 283.028C909.004 285.146 908.652 290.842 908 294z"/>
<path style="fill:#192f4b; stroke:none;" d="M791 286L791 307L792 307L792 287L840 287C827.348 281.691 804.788 286 791 286z"/>
<path style="fill:#13263e; stroke:none;" d="M483 287L483 308L538 308L538 344L539 344L539 306L485 306L485 287L483 287z"/>
<path style="fill:#1f2635; stroke:none;" d="M946 288L946 307L947 307L946 288z"/>
<path style="fill:#202f44; stroke:none;" d="M383 302L383 343L384 343C384 331.304 387.511 312.75 383 302z"/>
<path style="fill:#181c20; stroke:none;" d="M384 302L384 343L385 343L386 302L384 302z"/>
<path style="fill:#401f20; stroke:none;" d="M97 305L99 308L97 305z"/>
<path style="fill:#1a1f25; stroke:none;" d="M792 306L792 307L845 307L828 306L792 306z"/>
<path style="fill:#132739; stroke:none;" d="M945 307L942 318C945.112 315.466 946.532 310.747 945 307z"/>
<path style="fill:#833b37; stroke:none;" d="M99 308L109 311L107 314C114.436 314 133.172 317.342 138 311L99 308z"/>
<path style="fill:#233853; stroke:none;" d="M673 308L673 344L675 344C675.001 332.545 679.177 318.423 673 308z"/>
<path style="fill:#361b1a; stroke:none;" d="M102 311L102 312C105.163 313.53 106.51 313.517 109 311L102 311z"/>
<path style="fill:#662926; stroke:none;" d="M200 314C209.521 311.733 220.251 313 230 313C256.985 313 287.47 316.925 314 312C307.216 309.567 295.446 312 288 312L227 312C220.713 312 204.25 309.136 200 314z"/>
<path style="fill:#6d3733; stroke:none;" d="M96 343L97 343C97 331.761 94.9667 320.612 107 315C93.4343 310.759 96 336.063 96 343z"/>
<path style="fill:#8e3432; stroke:none;" d="M162 350L162 349C147.115 351.561 133.273 352 118 352C110.919 352 103.263 353.298 101 345L98 345C98 331.708 98.3133 325.924 106 315C96.0468 319.645 90.7597 345.984 102.529 352.142C106.831 354.393 114.267 353 119 353C132.992 353 148.901 355.337 162 350z"/>
<path style="fill:#311917; stroke:none;" d="M179 335L198 316C190.78 319.121 182.296 327.932 179 335z"/>
<path style="fill:#1d2a40; stroke:none;" d="M399 316L402 321L399 316z"/>
<path style="fill:#131d2c; stroke:none;" d="M939 321L938 325L942 321L939 321z"/>
<path style="fill:#3c2422; stroke:none;" d="M95 323L96 345L97 345L95 323z"/>
<path style="fill:#1c2330; stroke:none;" d="M406 331L409 337L406 331z"/>
<path style="fill:#1d273a; stroke:none;" d="M858 331C862.252 337.088 868.381 342.982 876 344L876 343L858 331z"/>
<path style="fill:#162437; stroke:none;" d="M676 333L676 344L677 344L676 333z"/>
<path style="fill:#552724; stroke:none;" d="M156 352L156 353C164.198 352.426 170.73 344.438 175 338L156 352z"/>
<path style="fill:#17202a; stroke:none;" d="M409 340C413.697 349.731 430.863 346 440 346L505 346C515.369 346 528.037 347.945 538 345L538 344C511.47 348.925 480.985 345 454 345C438.644 345 422.89 346.898 409 340z"/>
<path style="fill:#1a212d; stroke:none;" d="M712 342C706.153 347.971 690.954 345 683 345L683 346C691.005 346 709.386 349.522 714 342L712 342z"/>
<path style="fill:#152035; stroke:none;" d="M909 346L909 347L922 343L909 346z"/>
<path style="fill:#202b3b; stroke:none;" d="M349 344L349 345L382 345L349 344z"/>
<path style="fill:#2c4158; stroke:none;" d="M449 344L449 345L536 345L509 344L449 344z"/>
<path style="fill:#161c24; stroke:none;" d="M599 344L599 346L635 345L599 344z"/>
<path style="fill:#12161d; stroke:none;" d="M640 344C644.78 349.471 665.789 346 673 346L673 345L640 344z"/>
<path style="fill:#243143; stroke:none;" d="M641 344L641 345L673 345L641 344z"/>
<path style="fill:#131820; stroke:none;" d="M718 345L718 346L751 345L718 345z"/>
<path style="fill:#151b24; stroke:none;" d="M756 344L756 346L817 346L847 345L816 345L756 344z"/>
<path style="fill:#27364b; stroke:none;" d="M772 344L772 345L845 345L822 344L772 344z"/>
<path style="fill:#142035; stroke:none;" d="M876 344L876 345L883 346L883 345L876 344z"/>
<path style="fill:#131a27; stroke:none;" d="M883 347L883 348L909 348L883 347z"/>
<path style="fill:#5c2e2d; stroke:none;" d="M105 353L105 354L156 354C142.873 348.492 119.311 353 105 353z"/>
<path style="fill:#1d0f0f; stroke:none;" d="M105 354L105 355L156 355C142.873 349.492 119.311 354 105 354z"/>
</svg>
